<?xml version="1.0" standalone="no"?>
<!DOCTYPE svg PUBLIC "-//W3C//DTD SVG 20010904//EN"
 "http://www.w3.org/TR/2001/REC-SVG-20010904/DTD/svg10.dtd">
<svg version="1.0" xmlns="http://www.w3.org/2000/svg"
 width="512.000000pt" height="512.000000pt" viewBox="0 0 512.000000 512.000000"
 preserveAspectRatio="xMidYMid meet">
<metadata>
Created by potrace 1.14, written by Peter Selinger 2001-2017
</metadata>
<g transform="translate(0.000000,512.000000) scale(0.100000,-0.100000)"
fill="#000000" stroke="none">
<path d="M2333 4950 c-666 -65 -1289 -414 -1692 -950 -240 -319 -395 -694
-457 -1105 -25 -165 -25 -504 -1 -665 43 -282 115 -507 239 -755 347 -691
1009 -1169 1788 -1291 160 -25 507 -25 675 0 367 55 698 181 1000 380 346 228
629 546 814 915 316 628 343 1315 79 1986 -75 190 -240 471 -363 615 -86 102
-259 272 -350 345 -345 276 -720 440 -1174 511 -116 18 -431 26 -558 14z m402
-140 c913 -76 1679 -678 1964 -1544 188 -574 146 -1176 -120 -1710 -82 -163
-106 -196 -154 -213 -22 -8 -98 -29 -170 -48 -479 -126 -977 -127 -1390 -3
-167 50 -373 142 -473 210 -24 17 -45 28 -47 26 -7 -7 110 -137 165 -184 66
-56 163 -120 245 -162 289 -145 729 -186 1180 -111 112 19 305 59 350 74 13 4
11 1 -6 -9 -14 -8 -79 -33 -144 -56 -627 -216 -1394 -100 -1779 269 -225 216
-340 493 -339 821 1 476 245 882 604 1005 76 27 96 29 219 29 l135 0 -59 18
c-133 41 -213 51 -365 45 -119 -4 -162 -9 -234 -31 -386 -115 -678 -471 -753
-917 -24 -148 -16 -368 20 -504 70 -262 231 -502 447 -667 38 -29 66 -54 64
-56 -2 -2 -32 13 -66 33 -305 179 -525 506 -585 870 -24 148 -15 367 21 500
35 131 81 237 150 340 55 83 173 212 250 274 l40 32 -70 -6 c-546 -48 -939
-483 -1041 -1150 -31 -206 -15 -535 36 -725 32 -116 32 -117 15 -87 -59 103
-134 346 -161 517 -19 127 -19 380 1 495 76 438 316 801 682 1031 427 268 945
317 1480 139 124 -41 354 -148 460 -214 26 -16 49 -28 51 -26 8 8 -128 163
-216 246 -248 236 -563 392 -917 455 -140 25 -441 25 -580 0 -486 -88 -895
-353 -1167 -756 -39 -58 -90 -145 -114 -194 -24 -49 -45 -91 -47 -92 -7 -7 15
145 34 239 68 338 197 625 404 902 459 613 1222 958 1980 895z"/>
</g>
</svg>
